<?xml version="1.0" encoding="UTF-8"?>
<svg width="158px" height="42px" viewBox="0 0 158 42" version="1.1" xmlns="http://www.w3.org/2000/svg" xmlns:xlink="http://www.w3.org/1999/xlink">
    <!-- Generator: Sketch 59 (86127) - https://sketch.com -->
    <title>logo</title>
    <desc>Created with Sketch.</desc>
    <g id="logo" stroke="none" stroke-width="1" fill="none" fill-rule="evenodd">
        <g id="Group-5-Copy" fill-rule="nonzero">
            <path d="M2.22295767,34.0000496 C1.92283964,34.0000496 1.70457526,33.8631141 1.56815797,33.5892392 C1.43174069,33.3153642 1.44538221,33.0342862 1.60908295,32.7459968 L16.5057761,5.07034878 C16.6694768,4.75323039 16.9150243,4.45053102 17.2424257,4.16224158 C17.5698272,3.87395214 17.9790729,3.72980958 18.4701752,3.72980958 L26.2868466,3.72980958 C26.8052323,3.72980958 27.1735534,3.87395214 27.3918211,4.16224158 C27.6100887,4.45053102 27.7328624,4.75323039 27.7601459,5.07034878 L31.5252442,32.7459968 C31.6070945,33.1207731 31.5320661,33.4234724 31.3001568,33.654104 C31.0682474,33.8847355 30.8022377,34.0000496 30.5021196,34.0000496 L24.2815225,34.0000496 C23.7904203,34.0000496 23.4562029,33.8847355 23.2788605,33.654104 C23.101518,33.4234724 22.9992066,33.1928443 22.9719231,32.9622128 L22.3989734,29.4162704 L12.6179029,29.4162704 L10.6535038,33.005456 C10.5170865,33.2360875 10.3261052,33.4595085 10.080554,33.6757256 C9.83500293,33.8919427 9.46668179,34.0000496 8.97557956,34.0000496 L2.22295767,34.0000496 Z M15.9737513,22.0216832 L21.9897236,22.0216832 L20.925674,12.4216928 L15.9737513,22.0216832 Z M34.6838514,34.0000496 C34.4110168,34.0000496 34.1859317,33.8919427 34.0085892,33.6757256 C33.8312467,33.4595085 33.7698599,33.1928448 33.8244268,32.8757264 L39.5539241,4.42170078 C39.6084911,4.10458239 39.7653686,3.83791866 40.0245614,3.62170158 C40.2837543,3.4054845 40.549764,3.29737758 40.8225986,3.29737758 L47.0022707,3.29737758 C47.3023887,3.29737758 47.5342946,3.4054845 47.6979954,3.62170158 C47.8616961,3.83791866 47.9162622,4.10458239 47.8616953,4.42170078 L42.132198,32.8757264 C42.077631,33.1928448 41.9275743,33.4595085 41.6820232,33.6757256 C41.436472,33.8919427 41.1636416,34.0000496 40.8635235,34.0000496 L34.6838514,34.0000496 Z M47.2375369,34.0000496 C46.9647023,34.0000496 46.7396172,33.8919427 46.5622747,33.6757256 C46.3849322,33.4595085 46.3235454,33.1928448 46.3781123,32.8757264 L52.1076097,4.42170078 C52.1621766,4.10458239 52.3190541,3.83791866 52.5782469,3.62170158 C52.8374398,3.4054845 53.1034495,3.29737758 53.3762841,3.29737758 L59.5559562,3.29737758 C59.8560742,3.29737758 60.0879802,3.4054845 60.2516809,3.62170158 C60.4153816,3.83791866 60.4699477,4.10458239 60.4153808,4.42170078 L54.6858835,32.8757264 C54.6313165,33.1928448 54.4812598,33.4595085 54.2357087,33.6757256 C53.9901576,33.8919427 53.7173271,34.0000496 53.417209,34.0000496 L47.2375369,34.0000496 Z M71.1274422,34.0000496 C69.1903167,34.0000496 67.5396923,33.7117645 66.1755195,33.1351856 C64.8113466,32.5586067 63.8427984,31.6144729 63.2698458,30.302756 C62.6968932,28.991039 62.6286856,27.2397069 63.0652209,25.0487072 L64.4566703,18.2162816 L61.2645217,18.2162816 C60.9644037,18.2162816 60.725677,18.1009675 60.5483346,17.870336 C60.3709921,17.6397044 60.3232467,17.3658336 60.4050971,17.0487152 L61.2645217,12.6379088 C61.3190886,12.3207904 61.4759662,12.0541267 61.735159,11.8379096 C61.9943519,11.6216925 62.2740031,11.5135856 62.5741211,11.5135856 L65.8071946,11.5135856 L67.239569,4.42170078 C67.2941359,4.10458239 67.4441926,3.83791866 67.6897438,3.62170158 C67.9352949,3.4054845 68.2081254,3.29737758 68.5082434,3.29737758 L74.5651406,3.29737758 C74.8379752,3.29737758 75.0630603,3.4054845 75.2404028,3.62170158 C75.4177453,3.83791866 75.4791321,4.10458239 75.4245652,4.42170078 L73.9921909,11.5135856 L79.1078135,11.5135856 C79.4079315,11.5135856 79.6398374,11.6216925 79.8035382,11.8379096 C79.9672389,12.0541267 80.021805,12.3207904 79.9672381,12.6379088 L79.1078135,17.0487152 C79.0259631,17.3658336 78.8622648,17.6397044 78.6167137,17.870336 C78.3711626,18.1009675 78.0983321,18.2162816 77.7982141,18.2162816 L72.6416665,18.2162816 L71.3729921,24.3135728 C71.2911417,24.8613227 71.2706794,25.3369932 71.3116046,25.7405984 C71.3525298,26.1442036 71.4957658,26.446903 71.7413169,26.6487056 C71.986868,26.8505082 72.3551892,26.951408 72.8462914,26.951408 L76.3658398,26.951408 C76.6659578,26.951408 76.8910429,27.0595149 77.041102,27.275732 C77.191161,27.4919491 77.2389063,27.7586128 77.1843394,28.0757312 L76.2430648,32.8757264 C76.1884979,33.1928448 76.0384411,33.4595085 75.79289,33.6757256 C75.5473389,33.8919427 75.2745084,34.0000496 74.9743904,34.0000496 L71.1274422,34.0000496 Z M90.0890022,32.7702948 C87.8244753,32.7702948 85.9351242,32.3594885 84.4208923,31.5378636 C82.9066604,30.7162386 81.8630839,29.4621984 81.2901313,27.7757052 C80.7171787,26.0892119 80.6626126,23.9775234 81.1264313,21.4405764 L81.1809979,21.1715078 L81.1809979,21.1715078 L81.2082813,21.0081444 C81.2355647,20.8351707 81.2764893,20.6910281 81.3310562,20.5757124 C81.8767254,18.18291 82.777066,16.157707 84.032105,14.5000428 C85.287144,12.8423785 86.835457,11.5811311 88.6770903,10.7162628 C90.5187237,9.85139443 92.54449,9.41896676 94.75445,9.41896676 C97.2918116,9.41896676 99.2834741,9.94508709 100.729497,10.9973436 C102.175521,12.0496 103.130427,13.45499 103.594246,15.2135556 C104.058065,16.9721211 104.071706,18.9324599 103.635171,21.0946308 L103.389621,22.2621972 C103.307771,22.5793155 103.144072,22.8459793 102.898521,23.0621964 C102.65297,23.2784134 102.38014,23.3865204 102.080022,23.3865204 L89.4751275,23.3865204 L89.4700119,23.4351689 L89.4700119,23.4351689 L89.454665,23.4946284 C89.4410233,23.5378718 89.4342025,23.5883217 89.4342025,23.6459796 C89.2977852,24.3378742 89.2568606,24.9504801 89.3114276,25.4838156 C89.3659945,26.017151 89.550155,26.4279573 89.8639148,26.7162468 C90.1776746,27.0045362 90.6073826,27.1486788 91.1530517,27.1486788 C91.5077366,27.1486788 91.8146709,27.0910217 92.0738638,26.975706 C92.3330566,26.8603902 92.5649625,26.7090405 92.7695885,26.5216524 C92.9742144,26.3342642 93.1720165,26.1685003 93.3630007,26.0243556 C93.6631187,25.7360661 93.9018454,25.5558879 94.0791879,25.4838156 C94.2565303,25.4117432 94.5088985,25.3757076 94.8363,25.3757076 L101.302447,25.3757076 C101.575282,25.3757076 101.779904,25.4621931 101.916322,25.6351668 C102.052739,25.8081404 102.080022,26.0387685 101.998172,26.327058 C101.889038,26.8459789 101.541179,27.4729991 100.954585,28.2081372 C100.36799,28.9432752 99.5631404,29.6567809 98.5400108,30.3486756 C97.5168812,31.0405668 96.2959648,31.6171404 94.877225,32.0784036 C93.4584852,32.5396667 91.8624269,32.7702948 90.0890022,32.7702948 Z M90.457327,18.5000388 L95.4501747,18.5000388 L95.4501747,18.4567956 C95.6138755,17.6784141 95.6479793,17.0225654 95.5524872,16.48923 C95.4569951,15.9558945 95.2523722,15.5522953 94.9386125,15.2784204 C94.6248527,15.0045454 94.1951447,14.86761 93.6494756,14.86761 C93.1310899,14.86761 92.6536365,15.0045454 92.2171012,15.2784204 C91.7805659,15.5522953 91.4190655,15.9558945 91.1325892,16.48923 C90.8461129,17.0225654 90.6210278,17.6784141 90.457327,18.4567956 L90.457327,18.5000388 Z M116.104119,34.4905264 C114.194277,34.4905264 112.461803,34.1085486 110.906646,33.3445816 C109.351489,32.5806146 108.185139,31.4563026 107.40756,29.971612 C106.629982,28.4869214 106.391255,26.6923465 106.691373,24.5878336 L106.868169,23.6330246 L106.868169,23.6330246 L107.24959,21.7216744 C107.297608,21.4933509 107.343444,21.2811712 107.387098,21.0851344 C108.151035,17.9139506 109.637961,15.4635271 111.847921,13.7337904 C114.057881,12.0040538 116.786186,11.1391984 120.032917,11.1391984 C121.997326,11.1391984 123.64795,11.4418978 124.98484,12.0473056 C126.321729,12.6527134 127.385768,13.4094619 128.176988,14.3175736 C128.968208,15.2256854 129.52069,16.1337835 129.83445,17.0418952 C130.14821,17.950007 130.264163,18.7067554 130.182312,19.3121632 C130.155029,19.6292816 130.011793,19.8959453 129.7526,20.1121624 C129.493407,20.3283795 129.213756,20.4364864 128.913638,20.4364864 L122.201941,20.4364864 C121.901823,20.4364864 121.676738,20.357208 121.526679,20.1986488 C121.37662,20.0400896 121.260667,19.8310829 121.178816,19.5716224 C121.12425,18.9373857 120.95373,18.4617152 120.667254,18.1445968 C120.380778,17.8274784 119.937428,17.6689216 119.337192,17.6689216 C118.491405,17.6689216 117.802508,17.9788281 117.270481,18.5986504 C116.738453,19.2184727 116.336028,20.1193637 116.063194,21.3013504 L115.80855,22.4545019 L115.80855,22.4545019 L115.694869,22.9878352 C115.613019,23.377026 115.546516,23.7337803 115.49536,24.0581039 L115.449319,24.3716176 C115.258335,25.6112622 115.285618,26.5193603 115.531169,27.0959392 C115.77672,27.6725181 116.322381,27.9608032 117.168168,27.9608032 C117.822971,27.9608032 118.354991,27.8094535 118.764243,27.5067496 C119.173494,27.2040457 119.541816,26.7355824 119.869217,26.1013456 C120.060201,25.8130562 120.251183,25.5968423 120.442167,25.4526976 C120.633151,25.3085529 120.878698,25.2364816 121.178816,25.2364816 L127.890513,25.2364816 C128.190631,25.2364816 128.429358,25.3445885 128.606701,25.5608056 C128.784043,25.7770227 128.831788,26.0436864 128.749938,26.3608048 C128.613521,26.8797258 128.286124,27.5860244 127.767738,28.4797216 C127.249353,29.3734189 126.499069,30.281517 125.516864,31.2040432 C124.53466,32.1265694 123.272819,32.9049393 121.731304,33.539176 C120.189788,34.1734128 118.314079,34.4905264 116.104119,34.4905264 Z M131.410636,34.0580944 C131.137802,34.0580944 130.912717,33.9499875 130.735374,33.7337704 C130.558032,33.5175533 130.496645,33.2508896 130.551212,32.9337712 L136.280709,4.47974562 C136.335276,4.16262724 136.492153,3.8959635 136.751346,3.67974642 C137.010539,3.46352934 137.276549,3.35542242 137.549383,3.35542242 L144.26108,3.35542242 C144.561198,3.35542242 144.799925,3.46352934 144.977267,3.67974642 C145.15461,3.8959635 145.215997,4.16262724 145.16143,4.47974562 L143.237956,13.9500064 C144.111026,13.0851381 145.072754,12.4004609 146.123167,11.8959544 C147.17358,11.3914479 148.367213,11.1391984 149.704103,11.1391984 C151.313827,11.1391984 152.691621,11.4995548 153.837526,12.2202784 C154.983431,12.941002 155.801923,14.0220712 156.293025,15.4635184 C156.74635,16.7940851 156.792845,18.4439645 156.432509,20.4131996 L153.919376,32.9337712 C153.864809,33.2508896 153.714752,33.5175533 153.469201,33.7337704 C153.22365,33.9499875 152.950819,34.0580944 152.650701,34.0580944 L145.89808,34.0580944 C145.597962,34.0580944 145.366056,33.9499875 145.202355,33.7337704 C145.038654,33.5175533 144.984088,33.2508896 145.038655,32.9337712 L147.371379,21.214864 C147.589647,20.177022 147.52826,19.3770308 147.187216,18.8148664 C146.846173,18.252702 146.239125,17.971624 145.366055,17.971624 C144.765819,17.971624 144.226979,18.0941452 143.749518,18.3391912 C143.272058,18.5842372 142.855991,18.9518008 142.501306,19.4418928 C142.146621,19.9319849 141.901074,20.5229694 141.764656,21.214864 L139.391008,32.9337712 C139.336441,33.2508896 139.186384,33.5175533 138.940833,33.7337704 C138.695282,33.9499875 138.422451,34.0580944 138.122333,34.0580944 L131.410636,34.0580944 Z" id="Alltech" fill="#FFFFFF" transform="translate(79.073511, 18.893952) rotate(-2.000000) translate(-79.073511, -18.893952) "></path>
            <path d="M101.6357,29.2699975 C100.710916,31.3338626 99.2613573,33.1088835 97.4299536,34.4200405 C95.620445,35.7008567 93.3168939,36.5222497 90.5193003,36.8842195 C88.018437,37.2093729 85.8659821,36.9654802 84.0619356,36.1525414 C82.7660615,35.5750248 81.6410902,34.6620247 80.804367,33.5087757 C80.9461708,34.3847429 81.2589401,35.227371 81.7245905,35.9879395 C82.5430056,37.2680576 83.7961996,38.210227 85.2448028,38.6344861 C87.0714734,39.1587848 88.9816922,39.2799082 90.8428866,38.9894501 C92.9591603,38.7903586 95.0098574,38.1868757 96.8850563,37.2113492 C98.4154443,36.3742299 99.7021635,35.1576362 100.625572,33.6746898 C101.56475,32.1112545 102.191667,30.3746319 102.472106,28.5596048 L102.536179,28.2046547 C102.614963,27.7299856 102.685426,27.2192659 102.743629,26.6764498 L102.808585,26.0138305 C102.508068,27.1315947 102.115778,28.2206714 101.6357,29.2699975 Z" id="Path" fill="#47BABD" transform="translate(91.806476, 32.578693) rotate(11.000000) translate(-91.806476, -32.578693) "></path>
        </g>
    </g>
</svg>