<?xml version="1.0" encoding="UTF-8"?>
<svg width="156px" height="41px" viewBox="0 0 156 41" version="1.1" xmlns="http://www.w3.org/2000/svg" xmlns:xlink="http://www.w3.org/1999/xlink">
    <!-- Generator: Sketch 59 (86127) - https://sketch.com -->
    <title>logo_2</title>
    <desc>Created with Sketch.</desc>
    <g id="logo_2" stroke="none" stroke-width="1" fill="none" fill-rule="evenodd">
        <path d="M1.24485334,33.4013149 C0.944735311,33.4013149 0.726470931,33.2643794 0.590053641,32.9905045 C0.453636361,32.7166295 0.467277881,32.4355515 0.630978621,32.1472621 L15.5276718,4.47161405 C15.6913725,4.15449566 15.93692,3.85179629 16.2643214,3.56350685 C16.5917229,3.27521741 17.0009686,3.13107485 17.4920709,3.13107485 L25.3087423,3.13107485 C25.827128,3.13107485 26.1954491,3.27521741 26.4137168,3.56350685 C26.6319844,3.85179629 26.7547581,4.15449566 26.7820416,4.47161405 L30.5471399,32.1472621 C30.6289902,32.5220384 30.5539618,32.8247377 30.3220525,33.0553693 C30.0901431,33.2860008 29.8241334,33.4013149 29.5240153,33.4013149 L23.3034182,33.4013149 C22.812316,33.4013149 22.4780986,33.2860008 22.3007562,33.0553693 C22.1234137,32.8247377 22.0211023,32.5941096 21.9938188,32.3634781 L21.4208691,28.8175357 L11.6397986,28.8175357 L9.67539947,32.4067213 C9.53898217,32.6373528 9.34800087,32.8607738 9.10244967,33.0769909 C8.8568986,33.293208 8.48857746,33.4013149 7.99747523,33.4013149 L1.24485334,33.4013149 Z M14.995647,21.4229485 L21.0116193,21.4229485 L19.9475697,11.8229581 L14.995647,21.4229485 Z M33.7057471,33.4013149 C33.4329125,33.4013149 33.2078274,33.293208 33.0304849,33.0769909 C32.8531424,32.8607738 32.7917556,32.5941101 32.8463225,32.2769917 L38.5758198,3.82296605 C38.6303868,3.50584766 38.7872643,3.23918393 39.0464571,3.02296685 C39.30565,2.80674977 39.5716597,2.69864285 39.8444943,2.69864285 L46.0241664,2.69864285 C46.3242844,2.69864285 46.5561903,2.80674977 46.7198911,3.02296685 C46.8835918,3.23918393 46.9381579,3.50584766 46.883591,3.82296605 L41.1540937,32.2769917 C41.0995267,32.5941101 40.94947,32.8607738 40.7039189,33.0769909 C40.4583677,33.293208 40.1855373,33.4013149 39.8854192,33.4013149 L33.7057471,33.4013149 Z M46.2594326,33.4013149 C45.986598,33.4013149 45.7615129,33.293208 45.5841704,33.0769909 C45.4068279,32.8607738 45.3454411,32.5941101 45.400008,32.2769917 L51.1295054,3.82296605 C51.1840723,3.50584766 51.3409498,3.23918393 51.6001426,3.02296685 C51.8593355,2.80674977 52.1253452,2.69864285 52.3981798,2.69864285 L58.5778519,2.69864285 C58.8779699,2.69864285 59.1098759,2.80674977 59.2735766,3.02296685 C59.4372773,3.23918393 59.4918434,3.50584766 59.4372765,3.82296605 L53.7077792,32.2769917 C53.6532122,32.5941101 53.5031555,32.8607738 53.2576044,33.0769909 C53.0120533,33.293208 52.7392228,33.4013149 52.4391047,33.4013149 L46.2594326,33.4013149 Z M70.1493379,33.4013149 C68.2122124,33.4013149 66.561588,33.1130298 65.1974152,32.5364509 C63.8332423,31.959872 62.8646941,31.0157382 62.2917415,29.7040213 C61.7187889,28.3923043 61.6505813,26.6409722 62.0871166,24.4499725 L63.478566,17.6175469 L60.2864174,17.6175469 C59.9862994,17.6175469 59.7475727,17.5022328 59.5702303,17.2716013 C59.3928878,17.0409697 59.3451424,16.7670989 59.4269928,16.4499805 L60.2864174,12.0391741 C60.3409843,11.7220557 60.4978619,11.455392 60.7570547,11.2391749 C61.0162476,11.0229578 61.2958988,10.9148509 61.5960168,10.9148509 L64.8290903,10.9148509 L66.2614647,3.82296605 C66.3160316,3.50584766 66.4660883,3.23918393 66.7116395,3.02296685 C66.9571906,2.80674977 67.2300211,2.69864285 67.5301391,2.69864285 L73.5870363,2.69864285 C73.8598709,2.69864285 74.084956,2.80674977 74.2622985,3.02296685 C74.439641,3.23918393 74.5010278,3.50584766 74.4464609,3.82296605 L73.0140866,10.9148509 L78.1297092,10.9148509 C78.4298272,10.9148509 78.6617331,11.0229578 78.8254339,11.2391749 C78.9891346,11.455392 79.0437007,11.7220557 78.9891338,12.0391741 L78.1297092,16.4499805 C78.0478588,16.7670989 77.8841605,17.0409697 77.6386094,17.2716013 C77.3930583,17.5022328 77.1202278,17.6175469 76.8201098,17.6175469 L71.6635622,17.6175469 L70.3948878,23.7148381 C70.3130374,24.262588 70.2925751,24.7382585 70.3335003,25.1418637 C70.3744255,25.5454689 70.5176615,25.8481683 70.7632126,26.0499709 C71.0087637,26.2517735 71.3770849,26.3526733 71.8681871,26.3526733 L75.3877355,26.3526733 C75.6878535,26.3526733 75.9129386,26.4607802 76.0629977,26.6769973 C76.2130567,26.8932144 76.260802,27.1598781 76.2062351,27.4769965 L75.2649605,32.2769917 C75.2103936,32.5941101 75.0603368,32.8607738 74.8147857,33.0769909 C74.5692346,33.293208 74.2964041,33.4013149 73.9962861,33.4013149 L70.1493379,33.4013149 Z M89.1108979,32.1715601 C86.846371,32.1715601 84.9570199,31.7607538 83.442788,30.9391289 C81.9285561,30.1175039 80.8849796,28.8634637 80.312027,27.1769705 C79.7390744,25.4904772 79.6845083,23.3787887 80.148327,20.8418417 L80.2028936,20.5727731 L80.2028936,20.5727731 L80.230177,20.4094097 C80.2574604,20.236436 80.298385,20.0922934 80.3529519,19.9769777 C80.8986211,17.5841753 81.7989617,15.5589723 83.0540007,13.9013081 C84.3090397,12.2436438 85.8573527,10.9823964 87.698986,10.1175281 C89.5406194,9.2526597 91.5663857,8.82023203 93.7763457,8.82023203 C96.3137073,8.82023203 98.3053698,9.34635236 99.7513927,10.3986089 C101.197417,11.4508653 102.152323,12.8562553 102.616142,14.6148209 C103.079961,16.3733864 103.093602,18.3337252 102.657067,20.4958961 L102.411517,21.6634625 C102.329667,21.9805808 102.165968,22.2472446 101.920417,22.4634617 C101.674866,22.6796787 101.402036,22.7877857 101.101918,22.7877857 L88.4970232,22.7877857 L88.4919076,22.8364342 L88.4919076,22.8364342 L88.4765607,22.8958937 C88.462919,22.9391371 88.4560982,22.989587 88.4560982,23.0472449 C88.3196809,23.7391395 88.2787563,24.3517454 88.3333233,24.8850809 C88.3878902,25.4184163 88.5720507,25.8292226 88.8858105,26.1175121 C89.1995703,26.4058015 89.6292783,26.5499441 90.1749474,26.5499441 C90.5296323,26.5499441 90.8365666,26.492287 91.0957595,26.3769713 C91.3549523,26.2616555 91.5868582,26.1103058 91.7914842,25.9229177 C91.9961101,25.7355295 92.1939122,25.5697656 92.3848964,25.4256209 C92.6850144,25.1373314 92.9237411,24.9571532 93.1010836,24.8850809 C93.278426,24.8130085 93.5307942,24.7769729 93.8581957,24.7769729 L100.324343,24.7769729 C100.597178,24.7769729 100.8018,24.8634584 100.938218,25.0364321 C101.074635,25.2094057 101.101918,25.4400338 101.020068,25.7283233 C100.910934,26.2472442 100.563075,26.8742644 99.9764807,27.6094025 C99.3898857,28.3445405 98.5850361,29.0580462 97.5619065,29.7499409 C96.5387769,30.4418321 95.3178605,31.0184057 93.8991207,31.4796689 C92.4803809,31.940932 90.8843226,32.1715601 89.1108979,32.1715601 Z M89.4792227,17.9013041 L94.4720704,17.9013041 L94.4720704,17.8580609 C94.6357712,17.0796794 94.669875,16.4238307 94.5743829,15.8904953 C94.4788908,15.3571598 94.2742679,14.9535606 93.9605082,14.6796857 C93.6467484,14.4058107 93.2170404,14.2688753 92.6713713,14.2688753 C92.1529856,14.2688753 91.6755322,14.4058107 91.2389969,14.6796857 C90.8024616,14.9535606 90.4409612,15.3571598 90.1544849,15.8904953 C89.8680086,16.4238307 89.6429235,17.0796794 89.4792227,17.8580609 L89.4792227,17.9013041 Z M115.126015,33.8917917 C113.216173,33.8917917 111.483699,33.5098139 109.928542,32.7458469 C108.373385,31.9818799 107.207035,30.8575679 106.429456,29.3728773 C105.651878,27.8881867 105.413151,26.0936118 105.713269,23.9890989 L105.890065,23.0342899 L105.890065,23.0342899 L106.271486,21.1229397 C106.319504,20.8946162 106.36534,20.6824365 106.408994,20.4863997 C107.172931,17.3152159 108.659857,14.8647924 110.869817,13.1350557 C113.079777,11.4053191 115.808082,10.5404637 119.054813,10.5404637 C121.019222,10.5404637 122.669846,10.8431631 124.006736,11.4485709 C125.343625,12.0539787 126.407664,12.8107272 127.198884,13.7188389 C127.990104,14.6269507 128.542586,15.5350488 128.856346,16.4431605 C129.170106,17.3512723 129.286059,18.1080207 129.204208,18.7134285 C129.176925,19.0305469 129.033689,19.2972106 128.774496,19.5134277 C128.515303,19.7296448 128.235652,19.8377517 127.935534,19.8377517 L121.223837,19.8377517 C120.923719,19.8377517 120.698634,19.7584733 120.548575,19.5999141 C120.398516,19.4413549 120.282563,19.2323482 120.200712,18.9728877 C120.146146,18.338651 119.975626,17.8629805 119.68915,17.5458621 C119.402674,17.2287437 118.959324,17.0701869 118.359088,17.0701869 C117.513301,17.0701869 116.824404,17.3800934 116.292377,17.9999157 C115.760349,18.619738 115.357924,19.520629 115.08509,20.7026157 L114.830446,21.8557672 L114.830446,21.8557672 L114.716765,22.3891005 C114.634915,22.7782913 114.568412,23.1350456 114.517256,23.4593692 L114.471215,23.7728829 C114.280231,25.0125275 114.307514,25.9206256 114.553065,26.4972045 C114.798616,27.0737834 115.344277,27.3620685 116.190064,27.3620685 C116.844867,27.3620685 117.376887,27.2107188 117.786139,26.9080149 C118.19539,26.605311 118.563712,26.1368477 118.891113,25.5026109 C119.082097,25.2143215 119.273079,24.9981076 119.464063,24.8539629 C119.655047,24.7098182 119.900594,24.6377469 120.200712,24.6377469 L126.912409,24.6377469 C127.212527,24.6377469 127.451254,24.7458538 127.628597,24.9620709 C127.805939,25.178288 127.853684,25.4449517 127.771834,25.7620701 C127.635417,26.2809911 127.30802,26.9872897 126.789634,27.8809869 C126.271249,28.7746842 125.520965,29.6827823 124.53876,30.6053085 C123.556556,31.5278347 122.294715,32.3062046 120.7532,32.9404413 C119.211684,33.5746781 117.335975,33.8917917 115.126015,33.8917917 Z M130.432532,33.4593597 C130.159698,33.4593597 129.934613,33.3512528 129.75727,33.1350357 C129.579928,32.9188186 129.518541,32.6521549 129.573108,32.3350365 L135.302605,3.88101089 C135.357172,3.56389251 135.514049,3.29722877 135.773242,3.08101169 C136.032435,2.86479461 136.298445,2.75668769 136.571279,2.75668769 L143.282976,2.75668769 C143.583094,2.75668769 143.821821,2.86479461 143.999163,3.08101169 C144.176506,3.29722877 144.237893,3.56389251 144.183326,3.88101089 L142.259852,13.3512717 C143.132922,12.4864034 144.09465,11.8017262 145.145063,11.2972197 C146.195476,10.7927132 147.389109,10.5404637 148.725999,10.5404637 C150.335723,10.5404637 151.713517,10.9008201 152.859422,11.6215437 C154.005327,12.3422673 154.823819,13.4233365 155.314921,14.8647837 C155.768246,16.1953504 155.814741,17.8452298 155.454405,19.8144649 L152.941272,32.3350365 C152.886705,32.6521549 152.736648,32.9188186 152.491097,33.1350357 C152.245546,33.3512528 151.972715,33.4593597 151.672597,33.4593597 L144.919976,33.4593597 C144.619858,33.4593597 144.387952,33.3512528 144.224251,33.1350357 C144.06055,32.9188186 144.005984,32.6521549 144.060551,32.3350365 L146.393275,20.6161293 C146.611543,19.5782873 146.550156,18.7782961 146.209112,18.2161317 C145.868069,17.6539673 145.261021,17.3728893 144.387951,17.3728893 C143.787715,17.3728893 143.248875,17.4954105 142.771414,17.7404565 C142.293954,17.9855025 141.877887,18.3530661 141.523202,18.8431581 C141.168517,19.3332502 140.92297,19.9242347 140.786552,20.6161293 L138.412904,32.3350365 C138.358337,32.6521549 138.20828,32.9188186 137.962729,33.1350357 C137.717178,33.3512528 137.444347,33.4593597 137.144229,33.4593597 L130.432532,33.4593597 Z" id="Alltech" fill="#363A44" fill-rule="nonzero" transform="translate(78.095406, 18.295217) rotate(-2.000000) translate(-78.095406, -18.295217) "></path>
        <path d="M100.657596,28.6712628 C99.7328116,30.7351279 98.2832529,32.5101488 96.4518492,33.8213058 C94.6423406,35.102122 92.3387895,35.923515 89.5411959,36.2854848 C87.0403326,36.6106382 84.8878777,36.3667455 83.0838312,35.5538067 C81.7879571,34.9762901 80.6629858,34.06329 79.8262626,32.910041 C79.9680664,33.7860082 80.2808357,34.6286363 80.7464861,35.3892048 C81.5649012,36.6693229 82.8180952,37.6114923 84.2666984,38.0357514 C86.093369,38.5600501 88.0035878,38.6811735 89.8647822,38.3907154 C91.9810559,38.1916239 94.031753,37.588141 95.9069519,36.6126145 C97.4373399,35.7754952 98.7240591,34.5589015 99.6474676,33.0759551 C100.586646,31.5125198 101.213563,29.7758972 101.494002,27.9608701 L101.558075,27.60592 C101.636859,27.1312509 101.707322,26.6205312 101.765525,26.0777151 L101.830481,25.4150958 C101.529964,26.53286 101.137674,27.6219367 100.657596,28.6712628 Z" id="Path" fill="#47BABD" fill-rule="nonzero" transform="translate(90.828372, 31.979959) rotate(11.000000) translate(-90.828372, -31.979959) "></path>
    </g>
</svg>